# xmcd CD database file
#
# Track frame offsets:
#	182
#	26092
#	51837
#	67832
#	91972
#	128982
#	145470
#
# Disc length: 2387 seconds
#
# Revision: 0
# Processed by: cddbd v1.5PL3 Copyright (c) Steve Scherf et al.
# Submitted via: CDex 1.50
#
DISCID=60095107
DTITLE=John Lewis and Sven Asmussen - European Encounter
DYEAR=1986
DGENRE=Jazz
TTITLE0=If I Were Eve
TTITLE1=Winter's Tale
TTITLE2=Slater's Theme
TTITLE3=Valeria
TTITLE4=Lonely Woman
TTITLE5=Django
TTITLE6=New York 19
EXTD=YEAR: 1986
EXTT0=
EXTT1=
EXTT2=
EXTT3=
EXTT4=
EXTT5=
EXTT6=
PLAYORDER=
